#tb 0: 1/25
#tb 1: 1/48000
0,          0,          0,        1,   622080, 0x4e30accb
1,          0,          0,     1152,     4608, 0x00000000
1,       1152,       1152,     1152,     4608, 0xbca29063
0,          1,          1,        1,   622080, 0x7d941c14
1,       2304,       2304,     1152,     4608, 0x6e70df10
1,       3456,       3456,     1152,     4608, 0x95e6a535
0,          2,          2,        1,   622080, 0xf7451c5b
0,          3,          3,        1,   622080, 0xb2c74319
0,          4,          4,        1,   622080, 0xc9b80b79
0,          5,          5,        1,   622080, 0x92ce1194
0,          6,          6,        1,   622080, 0x43ae99ac
0,          7,          7,        1,   622080, 0x4ec3a554
0,          8,          8,        1,   622080, 0x3200250c
0,          9,          9,        1,   622080, 0x94ebb3f3
